<?xml version="1.0"?>
<svg version="1.1" id="Layer_1" xmlns="http://www.w3.org/2000/svg" x="0" y="0" viewBox="0 0 100 100" xml:space="preserve"><g><path fill="#a8b980" d="M68.1 58h19.1v3.9H68.1z"/><path fill="#a8b980" d="M68.1 38.7h24.4v3.9H68.1z"/><path fill="#a8b980" d="M68.1 48.3h22v3.9h-22z"/></g><path d="M13 66.8h44.1c.1 0 .2-.1.2-.2V45.1L37.8 57.3c-1.7 1.1-3.8 1.1-5.6 0L12.8 45.1v21.4c0 .2.1.3.2.3z" fill="#f4e6c8"/><path d="M15.4 40.6l17.9 11.1c1.1.7 2.4.7 3.5 0l17.9-11.1c1.7-1 2.7-2.8 2.7-4.8v-2.3c0-.1-.1-.2-.2-.2H13c-.1 0-.2.1-.2.2v2.3c0 2 1 3.8 2.6 4.8z" fill="#f7b26a"/><path d="M12 72h46.2c2.5 0 4.5-2 4.5-4.5V32.3c0-2.4-1.9-4.3-4.3-4.3H11.8c-2.4 0-4.3 1.9-4.3 4.3v35.3c0 2.4 2 4.4 4.5 4.4zm.8-38.5c0-.1.1-.2.2-.2h44.1c.1 0 .2.1.2.2v2.3c0 2-1 3.8-2.7 4.8L36.8 51.7c-1.1.7-2.4.7-3.5 0L15.4 40.6c-1.7-1-2.7-2.8-2.7-4.8v-2.3zm0 11.6l19.5 12.1c1.7 1.1 3.8 1.1 5.6 0l19.5-12.1v21.4c0 .1-.1.2-.2.2H13c-.1 0-.2-.1-.2-.2V45.1z" fill="#333"/><metadata xmlns:d="https://loading.io/stock/"><d:name>send mail</d:name><d:tags>email,envelope,packet,message,notification,information,letter,send mail,web application</d:tags><d:license>by</d:license><d:slug>qp2r4t</d:slug></metadata></svg>